<svg id="logo_moloko" data-name="logo moloko" xmlns="http://www.w3.org/2000/svg" width="164.215" height="27.761" viewBox="0 0 164.215 27.761">
  <g id="Groupe_2" data-name="Groupe 2">
    <path id="Tracé_4" data-name="Tracé 4" d="M2.353,18.821h0v2.117H0V0H2.353V9.175h0A5.53,5.53,0,0,1,7.293,6.352a5.169,5.169,0,0,1,4.235,1.882,8.484,8.484,0,0,1,1.647,5.176,8.5,8.5,0,0,1-1.647,5.646,6.407,6.407,0,0,1-4.941,2.117A4.48,4.48,0,0,1,2.353,18.821Zm0-5.646v1.882a4.955,4.955,0,0,0,1.176,3.058,3.167,3.167,0,0,0,2.823,1.176,3.815,3.815,0,0,0,3.294-1.647,6.708,6.708,0,0,0,1.176-4.47A5.986,5.986,0,0,0,9.646,9.411C8.94,8.47,7.764,8.47,6.587,8.47A3.5,3.5,0,0,0,3.529,9.881,5.1,5.1,0,0,0,2.353,13.175Z" fill="#7faf8e"/>
    <path id="Tracé_5" data-name="Tracé 5" d="M19.375,2.9,12.787,19.369c-1.176,2.823-2.823,4.47-4.941,4.47-.706,0-1.176,0-1.412-.235V21.486a2.984,2.984,0,0,0,1.412.235c1.176,0,1.882-.706,2.588-2.117l1.176-2.588L6.2,2.9H8.788l3.764,10.822a3.148,3.148,0,0,0,.235,1.176h0c0-.235.235-.471.235-.941l4-10.822h2.353Z" transform="translate(8.386 3.923)" fill="#7faf8e"/>
    <path id="Tracé_6" data-name="Tracé 6" d="M71.827,5.946l-7.058,5.176,7.058,4.941v5.882h-4.47l-8-6.352v6.352H52.3V.3h7.058V6.652L67.592.3h4.235Z" transform="translate(70.744 0.406)" fill="#7faf8e"/>
    <path id="Tracé_7" data-name="Tracé 7" d="M80.892.2V22.315H61.6V.2ZM73.834,6.082H68.423V16.2h5.411Z" transform="translate(83.323 0.271)" fill="#7faf8e"/>
    <path id="Tracé_8" data-name="Tracé 8" d="M43.414.2V22.315H36.356V6.082H33.769v16H26.946v-16H24.358v16H17.3V.2Z" transform="translate(23.401 0.271)" fill="#7faf8e"/>
    <path id="Tracé_9" data-name="Tracé 9" d="M48.892.2V22.315H29.6V.2ZM41.834,6.082H36.423V16.2h5.411Z" transform="translate(40.038 0.271)" fill="#7faf8e"/>
    <path id="Tracé_10" data-name="Tracé 10" d="M48.546.2V15.257H55.6V6.082h5.411V16.433H45.958V.2H38.9V22.315H67.838V.2Z" transform="translate(52.618 0.271)" fill="#7faf8e"/>
  </g>
</svg>
