<svg id="picto-autre-service" xmlns="http://www.w3.org/2000/svg" width="180" height="180" viewBox="0 0 180 180">
  <path id="Tracé_18" data-name="Tracé 18" d="M226.135,56.93A90.357,90.357,0,0,0,169.38,76.981l-.03-17.806a2.272,2.272,0,0,0-2.275-2.275h0a2.272,2.272,0,0,0-2.275,2.275l.061,22.629a2.272,2.272,0,0,0,2.275,2.275l22.538.03h0a2.275,2.275,0,0,0,0-4.55l-16.259-.03A85.907,85.907,0,0,1,297.39,195.344,2.257,2.257,0,0,0,298,198.5a2.492,2.492,0,0,0,1.244.394,2.186,2.186,0,0,0,1.85-1A90.391,90.391,0,0,0,226.135,56.93Z" transform="translate(-136.561 -56.9)" fill="#0c4210"/>
  <path id="Tracé_19" data-name="Tracé 19" d="M218.2,299.913H195.666a2.275,2.275,0,1,0,0,4.55h16.441A85.907,85.907,0,0,1,88.132,188.648,2.272,2.272,0,1,0,84.37,186.1a90.4,90.4,0,0,0,131.589,121l.03,17.685a2.272,2.272,0,0,0,2.275,2.275h0a2.272,2.272,0,0,0,2.275-2.275l-.03-22.629a2.292,2.292,0,0,0-2.305-2.245Z" transform="translate(-68.9 -147.062)" fill="#0c4210"/>
  <g id="Groupe_3" data-name="Groupe 3" transform="translate(21.065 57.421)">
    <path id="Tracé_20" data-name="Tracé 20" d="M186.227,386.5a11.512,11.512,0,1,0,11.527,11.527A11.522,11.522,0,0,0,186.227,386.5Zm7.189,11.557a7.109,7.109,0,0,1-7.189,7.189,7.22,7.22,0,1,1,7.189-7.189Z" transform="translate(-163.672 -344.366)" fill="#0c4210"/>
    <path id="Tracé_21" data-name="Tracé 21" d="M172.76,297.573a.617.617,0,0,0,.455.182l3.124-.091a.583.583,0,0,0,.576-.607V253.407a.608.608,0,0,0-.607-.607H156.137c-1.486,0-4.4.546-7.159,4.156-2.245,2.942-4.125,7.7-5.551,14.105-3,3.124-4.489,5.945-4.944,9.373v.061c-.182,4.884-.152,8.8-.091,12.922.03,2.154.03,4.4.03,6.795a6.775,6.775,0,0,0,1.79,5.005l.061.061a9.208,9.208,0,0,0,6.279,1.79h1.911a.645.645,0,0,0,.455-.212.56.56,0,0,0,.152-.485,13.383,13.383,0,0,1,0-2.7l.03-.3a.617.617,0,0,0-.182-.455.689.689,0,0,0-.485-.182,10.4,10.4,0,0,1-5.217-.637,2.669,2.669,0,0,1-.485-1.82V280.95c.334-2.518,1.062-4.338,4.034-7.28l.334-.3a.723.723,0,0,0,.182-.334l.091-.455c1.577-7.371,3.61-11.133,5.005-12.983,1.274-1.638,2.487-2.427,3.7-2.427h16.441v39.98A.978.978,0,0,0,172.76,297.573Z" transform="translate(-138.345 -251.223)" fill="#0c4210"/>
    <path id="Tracé_22" data-name="Tracé 22" d="M373.2,256.973h-91.4v-8.767a.608.608,0,0,0-.607-.607h-3.094a.608.608,0,0,0-.607.607v40.587a.608.608,0,0,0,.607.607h95.1a.608.608,0,0,0,.607-.607V257.58A.608.608,0,0,0,373.2,256.973Zm-91.4,28.089V261.311h87.635v23.751Z" transform="translate(-236.14 -247.6)" fill="#0c4210"/>
    <path id="Tracé_23" data-name="Tracé 23" d="M299.5,418.037a.745.745,0,0,0-.152-.455.617.617,0,0,0-.455-.182H251.937a.645.645,0,0,0-.455.212.56.56,0,0,0-.152.485,13.384,13.384,0,0,1,0,2.7l-.03.3a.817.817,0,0,0,.152.455.617.617,0,0,0,.455.182l46.957.182h0a.546.546,0,0,0,.455-.212.56.56,0,0,0,.152-.485,16.548,16.548,0,0,1,0-3Z" transform="translate(-217.359 -365.893)" fill="#0c4210"/>
    <path id="Tracé_24" data-name="Tracé 24" d="M422.527,386.5a11.512,11.512,0,1,0,11.527,11.527A11.522,11.522,0,0,0,422.527,386.5Zm0,18.746a7.22,7.22,0,1,1,7.189-7.189A7.109,7.109,0,0,1,422.527,405.246Z" transform="translate(-328.903 -344.366)" fill="#0c4210"/>
    <path id="Tracé_25" data-name="Tracé 25" d="M509.927,386.5a11.512,11.512,0,1,0,11.527,11.527A11.522,11.522,0,0,0,509.927,386.5Zm7.189,11.557a7.109,7.109,0,0,1-7.189,7.189,7.22,7.22,0,1,1,7.189-7.189Z" transform="translate(-390.032 -344.366)" fill="#0c4210"/>
  </g>
</svg>
