<svg xmlns="http://www.w3.org/2000/svg" width="250.044" height="249.989" viewBox="0 0 250.044 249.989">
  <g id="picto_ReUse" data-name="picto ReUse" transform="translate(-107.3 -116)">
    <g id="Groupe_7" data-name="Groupe 7" transform="translate(107.3 116)">
      <path id="Tracé_42" data-name="Tracé 42" d="M264.181,116a124.907,124.907,0,0,0-78.474,27.739l-.056-24.614A3.12,3.12,0,0,0,182.526,116h0a3.12,3.12,0,0,0-3.126,3.126l.056,31.256a3.12,3.12,0,0,0,3.126,3.126l31.144.056h0a3.126,3.126,0,1,0,0-6.251l-22.493-.056A118.793,118.793,0,0,1,362.691,307.384a3.141,3.141,0,0,0,.837,4.353,3.511,3.511,0,0,0,1.73.558,3.039,3.039,0,0,0,2.567-1.4A124.994,124.994,0,0,0,264.181,116Z" transform="translate(-139.158 -116)" fill="#0c4210"/>
      <path id="Tracé_43" data-name="Tracé 43" d="M313.754,371.008H282.61a3.126,3.126,0,0,0,0,6.251h22.716A118.793,118.793,0,0,1,133.867,217.13a3.135,3.135,0,0,0-5.191-3.516A125.005,125.005,0,0,0,310.629,380.943l.056,24.446a3.12,3.12,0,0,0,3.126,3.126h0a3.12,3.12,0,0,0,3.126-3.126l-.056-31.311a3.109,3.109,0,0,0-3.126-3.07Z" transform="translate(-107.3 -158.526)" fill="#0c4210"/>
    </g>
    <g id="Groupe_8" data-name="Groupe 8" transform="translate(147.207 155.851)">
      <path id="Tracé_44" data-name="Tracé 44" d="M374.015,242.632a3.537,3.537,0,0,0,3.516-3.516,3.5,3.5,0,0,0-3.516-3.516l-20.93.056a3.526,3.526,0,0,0-3.516,3.46l-.056,20.874a3.537,3.537,0,0,0,3.516,3.516,3.49,3.49,0,0,0,3.516-3.46V249.218a78.157,78.157,0,0,1-107.832,109.45,3.429,3.429,0,0,0-4.8.949l-.056.056a3.639,3.639,0,0,0-.558,1.9,3.5,3.5,0,0,0,1.563,2.9,85.1,85.1,0,0,0,115.59-121.729Z" transform="translate(-207.3 -208.698)" fill="#0c4210"/>
      <path id="Tracé_45" data-name="Tracé 45" d="M263.915,194.432a78.1,78.1,0,0,1,43.7,13.339,3.5,3.5,0,0,0,3.907-5.8,85.112,85.112,0,0,0-115.7,121.618l-13.507.056a3.488,3.488,0,1,0,0,6.977l20.986-.056a3.49,3.49,0,0,0,3.46-3.516V306.171a3.517,3.517,0,0,0-7.033,0v10.939a78.059,78.059,0,0,1,64.185-122.678Z" transform="translate(-178.8 -187.4)" fill="#0c4210"/>
    </g>
  </g>
</svg>
