<svg id="picto-reprise-gratuite" xmlns="http://www.w3.org/2000/svg" width="180" height="180" viewBox="0 0 180 180">
  <g id="Groupe_4" data-name="Groupe 4" transform="translate(46.565 72.854)">
    <path id="Tracé_26" data-name="Tracé 26" d="M388.147,298a2.651,2.651,0,0,0-2.647,2.647v28.846a2.647,2.647,0,1,0,5.294,0V300.647a2.619,2.619,0,0,0-.782-1.865A2.569,2.569,0,0,0,388.147,298Z" transform="translate(-336.501 -298)" fill="#0c4210"/>
    <path id="Tracé_27" data-name="Tracé 27" d="M333.547,298a2.651,2.651,0,0,0-2.647,2.647v28.846a2.647,2.647,0,1,0,5.294,0V300.647A2.671,2.671,0,0,0,333.547,298Z" transform="translate(-298.324 -298)" fill="#0c4210"/>
    <path id="Tracé_28" data-name="Tracé 28" d="M441.747,298a2.651,2.651,0,0,0-2.647,2.647v28.846a2.647,2.647,0,1,0,5.294,0V300.647a2.619,2.619,0,0,0-.782-1.865A2.569,2.569,0,0,0,441.747,298Z" transform="translate(-373.978 -298)" fill="#0c4210"/>
    <path id="Tracé_29" data-name="Tracé 29" d="M496.447,298a2.651,2.651,0,0,0-2.647,2.647v28.846a2.647,2.647,0,1,0,5.294,0V300.647A2.671,2.671,0,0,0,496.447,298Z" transform="translate(-412.225 -298)" fill="#0c4210"/>
    <path id="Tracé_30" data-name="Tracé 30" d="M279.947,298a2.651,2.651,0,0,0-2.647,2.647v28.846a2.647,2.647,0,1,0,5.294,0V300.647A2.671,2.671,0,0,0,279.947,298Z" transform="translate(-260.847 -298)" fill="#0c4210"/>
    <path id="Tracé_31" data-name="Tracé 31" d="M225.247,298a2.651,2.651,0,0,0-2.647,2.647v28.846a2.647,2.647,0,1,0,5.294,0V300.647A2.671,2.671,0,0,0,225.247,298Z" transform="translate(-222.6 -298)" fill="#0c4210"/>
  </g>
  <path id="Tracé_32" data-name="Tracé 32" d="M285.4,248.492a2.565,2.565,0,0,0-1.361-.692h-119.4a2.565,2.565,0,0,0-1.361.692,2.5,2.5,0,0,0-.786,1.835v59.287a2.684,2.684,0,0,0,2.661,2.677h118.4a2.664,2.664,0,0,0,2.661-2.677V250.327A2.647,2.647,0,0,0,285.4,248.492ZM280.9,307H167.792V259.05h0v-6.016H280.9v.03h0Z" transform="translate(-134.346 -190.045)" fill="#0c4210"/>
  <path id="Tracé_33" data-name="Tracé 33" d="M225.621,56.93a89.6,89.6,0,0,0-56.279,19.883l-.03-17.657a2.253,2.253,0,0,0-2.256-2.256h0a2.253,2.253,0,0,0-2.256,2.256l.06,22.439a2.253,2.253,0,0,0,2.256,2.256l22.349.03h0a2.256,2.256,0,0,0,0-4.512l-16.123-.03A85.187,85.187,0,0,1,296.277,194.183a2.238,2.238,0,0,0,.6,3.128,2.471,2.471,0,0,0,1.233.391,2.168,2.168,0,0,0,1.835-.993A89.633,89.633,0,0,0,225.621,56.93Z" transform="translate(-135.288 -56.9)" fill="#0c4210"/>
  <path id="Tracé_34" data-name="Tracé 34" d="M216.951,298.95H194.6a2.256,2.256,0,1,0,0,4.512h16.3A85.187,85.187,0,0,1,87.97,188.619a2.253,2.253,0,1,0-3.73-2.527A89.645,89.645,0,0,0,214.725,306.079l.03,17.536a2.253,2.253,0,0,0,2.256,2.256h0a2.253,2.253,0,0,0,2.256-2.256l-.03-22.439a2.273,2.273,0,0,0-2.286-2.226Z" transform="translate(-68.9 -145.871)" fill="#0c4210"/>
</svg>
