<svg xmlns="http://www.w3.org/2000/svg" width="250" height="250.037" viewBox="0 0 250 250.037">
  <g id="picto-forbidden" transform="translate(-104.037 -117.1)">
    <path id="Tracé_16" data-name="Tracé 16" d="M118.926,182.965A124.988,124.988,0,0,0,228.72,367.138h.914a124.42,124.42,0,0,0,87.63-36.446A125.015,125.015,0,1,0,118.926,182.965Zm106.367-58.154h3.827a116.915,116.915,0,0,1,44.558,8.8,115.207,115.207,0,0,1,38.1,25.421,117.309,117.309,0,0,1-48.556,195.311,117.528,117.528,0,0,1-78.947-3.77,117.348,117.348,0,0,1,41.016-225.759Z" fill="#0c4210"/>
    <path id="Tracé_17" data-name="Tracé 17" d="M166.445,352.04a3.855,3.855,0,0,0-1.145,2.747c0,1.03.8,1.66,1.488,2.4.744.687,1.316,1.316,2.289,1.316h.229a4.136,4.136,0,0,0,2.69-1.03L343.938,185.535c.973-.973.939-2.349.6-3.723a3.575,3.575,0,0,0-2.781-2.437,2.958,2.958,0,0,0-3.253.665Z" transform="translate(-26.441 -26.668)" fill="#0c4210"/>
  </g>
</svg>
