<svg id="picto-service-luxembourg" xmlns="http://www.w3.org/2000/svg" width="180" height="180" viewBox="0 0 180 180">
  <path id="Tracé_35" data-name="Tracé 35" d="M225.675,56.93a89.679,89.679,0,0,0-56.329,19.9l-.03-17.672a2.255,2.255,0,0,0-2.258-2.258h0a2.255,2.255,0,0,0-2.258,2.258l.06,22.459a2.255,2.255,0,0,0,2.258,2.258l22.369.03h0a2.258,2.258,0,0,0,0-4.516l-16.137-.03A85.262,85.262,0,0,1,296.394,194.3a2.24,2.24,0,0,0,.6,3.131,2.473,2.473,0,0,0,1.234.391,2.17,2.17,0,0,0,1.836-.993,89.712,89.712,0,0,0-74.392-139.9Z" transform="translate(-135.421 -56.9)" fill="#0c4210"/>
  <path id="Tracé_36" data-name="Tracé 36" d="M217.083,299.051H194.714a2.258,2.258,0,1,0,0,4.516h16.318A85.262,85.262,0,0,1,87.987,188.622a2.255,2.255,0,1,0-3.733-2.529,89.725,89.725,0,0,0,130.6,120.094l.03,17.552A2.255,2.255,0,0,0,217.143,326h0a2.255,2.255,0,0,0,2.258-2.258l-.03-22.459a2.275,2.275,0,0,0-2.288-2.228Z" transform="translate(-68.9 -145.996)" fill="#0c4210"/>
  <path id="Tracé_37" data-name="Tracé 37" d="M304.586,206.627l-5.964-3.113a2.36,2.36,0,0,0-1.12-.272h-5.661l-10.141-6.8-7.841-6.105L266.5,177.128l-5.358-13.359c1.241-10.972,1.241-11.032,1.211-11.244l-1.3-7.8a2.378,2.378,0,0,0-2.361-1.995h-4.48a2.392,2.392,0,0,0-1.393.453l-1.483,1.058-2.089-2.478a2.432,2.432,0,0,0-2.452-.756l-6.721,1.813a2.4,2.4,0,0,0-1.756,2.3v4.594l-4.783,2.962a2.611,2.611,0,0,0-.878.937l-4.147,7.979a2.319,2.319,0,0,0-.272,1.088v3.99l-3.905,2.75a2.427,2.427,0,0,0-.908,2.63l1.06,3.6-6.054,3.778a2.384,2.384,0,0,0-.969,1.209l-3.693,10.488a2.335,2.335,0,0,0,.3,2.176l3.148,4.443-2.18,10.518a2.483,2.483,0,0,0,.333,1.783l8.416,12.906a2.419,2.419,0,0,0,2,1.088H228.3V228.9a2.29,2.29,0,0,0,.938,1.874l2.815,2.176L228.6,243.229l-6.3,7.314a2.376,2.376,0,0,0,.121,3.234l7.75,7.737a2.383,2.383,0,0,0,1.7.7h6.115l3.481,6.831a2.349,2.349,0,0,0,2.119,1.3h12.533a2.316,2.316,0,0,0,2.119-1.3l2.21-4.292,11.352-4.715,12.866,8.161a2.471,2.471,0,0,0,2.422.091,2.391,2.391,0,0,0,1.241-2.086V247.491l4.844-7.768a2.33,2.33,0,0,0,.3-.756l1.907-8.674,7.2-5.138a2.351,2.351,0,0,0,.969-1.572l2.27-14.508A2.29,2.29,0,0,0,304.586,206.627Zm-21.039,55.251-10.232-6.5a2.388,2.388,0,0,0-2.21-.181l-13.32,5.531a2.416,2.416,0,0,0-1.211,1.118l-1.937,3.778h-9.687l-3.481-6.831a2.382,2.382,0,0,0-2.119-1.3H232.81l-5.479-5.471,5.177-5.984a2.309,2.309,0,0,0,.454-.786l4.147-12.332a2.414,2.414,0,0,0-.787-2.66l-3.239-2.478v-6.136a2.375,2.375,0,0,0-2.392-2.388h-3.6l-7.175-11,2.18-10.548a2.34,2.34,0,0,0-.394-1.844l-3.027-4.292,3.058-8.523,6.872-4.292a2.381,2.381,0,0,0,1.029-2.69l-1.09-3.687,3.512-2.478a2.378,2.378,0,0,0,1-1.934v-4.655l3.572-6.891,5.358-3.294a2.383,2.383,0,0,0,1.12-2.025v-4.111l3.481-.937,2.513,2.992a2.43,2.43,0,0,0,3.209.423l2.664-1.874h1.7l.908,5.471-1.241,10.851a2.13,2.13,0,0,0,.151,1.149l5.752,14.3,7.72,13.843a2.765,2.765,0,0,0,.605.725l8.325,6.468,10.9,7.314a2.3,2.3,0,0,0,1.332.393h5.812l3.935,2.055-1.847,11.848-7.144,5.078a2.3,2.3,0,0,0-.938,1.421L288.9,237.7l-4.965,8.009a2.377,2.377,0,0,0-.363,1.269Z" transform="translate(-170.053 -115.63)" fill="#0c4210"/>
</svg>
