<svg xmlns="http://www.w3.org/2000/svg" width="250" height="250.007" viewBox="0 0 250 250.007">
  <g id="picto-feuille" transform="translate(-126 -55.999)">
    <path id="Tracé_13" data-name="Tracé 13" d="M284.065,56a126.8,126.8,0,0,0-79.579,28.119l-.053-24.955A3.172,3.172,0,0,0,201.263,56h-.007a3.17,3.17,0,0,0-3.164,3.175l.069,31.706a3.169,3.169,0,0,0,3.164,3.164l31.585.069h.007a3.169,3.169,0,0,0,.007-6.338L210.1,87.726A120.446,120.446,0,0,1,383.93,250.11a3.169,3.169,0,0,0,5.253,3.548A126.794,126.794,0,0,0,284.062,56Z" transform="translate(-34.836)" fill="#0c4210"/>
    <path id="Tracé_14" data-name="Tracé 14" d="M335.312,313.231H303.721a3.17,3.17,0,1,0,0,6.34h23.034A120.432,120.432,0,0,1,152.9,157.234a3.169,3.169,0,1,0-5.253-3.548A126.78,126.78,0,0,0,332.16,323.408l.049,24.773a3.168,3.168,0,0,0,3.168,3.164h.007a3.168,3.168,0,0,0,3.164-3.175l-.064-31.775a3.167,3.167,0,0,0-3.168-3.164Z" transform="translate(0 -45.34)" fill="#0c4210"/>
    <path id="Tracé_15" data-name="Tracé 15" d="M362.057,206.687c-.067-21.131-10.845-43.839-32.038-67.484A221.42,221.42,0,0,0,298.4,110.139a3.074,3.074,0,0,0-3.65.039c-2.578,1.957-63.169,48.422-63.02,96.528.108,35.64,27.783,64.745,62.282,66.4l.071,22.732a3.1,3.1,0,0,0,3.086,3.1h.009a3.1,3.1,0,0,0,3.075-3.121l-.069-22.708a63.846,63.846,0,0,0,42.627-19.043,66.606,66.606,0,0,0,19.245-47.383Zm-61.9,60.206-.084-27.357L332.739,206.5a3.128,3.128,0,0,0-.006-4.4,3.062,3.062,0,0,0-4.363.007l-28.321,28.646-.108-35.033,16.753-16.945a3.128,3.128,0,0,0-.006-4.4,3.06,3.06,0,0,0-4.363.007l-12.41,12.552-.084-27.17a3.1,3.1,0,0,0-3.086-3.1h-.009a3.1,3.1,0,0,0-3.076,3.121l.084,27L281.4,174.377a3.06,3.06,0,0,0-4.363.007,3.128,3.128,0,0,0,.006,4.4L293.773,195.6l.108,35.143L265.391,202.1a3.062,3.062,0,0,0-4.363.007,3.128,3.128,0,0,0,.006,4.4l32.873,33.045.084,27.333c-31.1-1.662-56-27.984-56.094-60.2-.125-40.53,48.645-81.961,58.745-90.106,10.186,7.869,59.114,47.882,59.24,90.123a60.414,60.414,0,0,1-17.446,42.975,57.783,57.783,0,0,1-38.28,17.211Z" transform="translate(-45.892 -23.247)" fill="#0c4210"/>
  </g>
</svg>
